<svg width="45" height="14" viewBox="0 0 45 14" fill="none" xmlns="http://www.w3.org/2000/svg">
<path d="M7.22465 9.63965V11H1.94047V9.63965H7.22465ZM2.42582 1.04688V11H0.709999V1.04688H2.42582ZM6.53422 5.20312V6.54297H1.94047V5.20312H6.53422ZM7.19047 1.04688V2.41406H1.94047V1.04688H7.19047ZM10.0957 5.18262V11H8.44828V3.60352H10L10.0957 5.18262ZM9.8018 7.02832L9.26859 7.02148C9.27315 6.4974 9.34607 6.0166 9.48734 5.5791C9.63318 5.1416 9.8337 4.76562 10.0889 4.45117C10.3487 4.13672 10.6586 3.89518 11.0186 3.72656C11.3786 3.55339 11.7797 3.4668 12.2217 3.4668C12.5772 3.4668 12.8985 3.51693 13.1856 3.61719C13.4773 3.71289 13.7256 3.87012 13.9307 4.08887C14.1403 4.30762 14.2998 4.59245 14.4092 4.94336C14.5186 5.28971 14.5733 5.71582 14.5733 6.22168V11H12.919V6.21484C12.919 5.85938 12.8666 5.5791 12.7618 5.37402C12.6615 5.16439 12.5134 5.01628 12.3174 4.92969C12.126 4.83854 11.8868 4.79297 11.5996 4.79297C11.3171 4.79297 11.0642 4.85221 10.8409 4.9707C10.6176 5.08919 10.4284 5.25098 10.2735 5.45605C10.1231 5.66113 10.0069 5.89811 9.92484 6.16699C9.84281 6.43587 9.8018 6.72298 9.8018 7.02832ZM20.9922 3.60352H22.4893V10.7949C22.4893 11.4603 22.348 12.0254 22.0655 12.4902C21.7829 12.9551 21.3887 13.3083 20.8829 13.5498C20.377 13.7959 19.7914 13.9189 19.126 13.9189C18.8435 13.9189 18.529 13.8779 18.1827 13.7959C17.8409 13.7139 17.5082 13.5817 17.1846 13.3994C16.8656 13.2217 16.599 12.987 16.3848 12.6953L17.1573 11.7246C17.4216 12.0391 17.7133 12.2692 18.0323 12.415C18.3513 12.5609 18.6862 12.6338 19.0371 12.6338C19.4154 12.6338 19.7367 12.5632 20.001 12.4219C20.2699 12.2852 20.4773 12.0824 20.6231 11.8135C20.7689 11.5446 20.8418 11.2165 20.8418 10.8291V5.27832L20.9922 3.60352ZM15.9678 7.38379V7.24023C15.9678 6.67969 16.0362 6.16927 16.1729 5.70898C16.3096 5.24414 16.5056 4.84538 16.7608 4.5127C17.016 4.17546 17.3259 3.91797 17.6905 3.74023C18.0551 3.55794 18.4675 3.4668 18.9278 3.4668C19.4063 3.4668 19.8142 3.55339 20.1514 3.72656C20.4932 3.89974 20.778 4.14811 21.0059 4.47168C21.2338 4.79069 21.4115 5.1735 21.5391 5.62012C21.6713 6.06217 21.7692 6.55436 21.833 7.09668V7.55469C21.7738 8.08333 21.6735 8.56641 21.5323 9.00391C21.391 9.44141 21.2041 9.81966 20.9717 10.1387C20.7393 10.4577 20.4522 10.7038 20.1104 10.877C19.7732 11.0501 19.3744 11.1367 18.9141 11.1367C18.4629 11.1367 18.0551 11.0433 17.6905 10.8564C17.3304 10.6696 17.0205 10.4076 16.7608 10.0703C16.5056 9.73307 16.3096 9.33659 16.1729 8.88086C16.0362 8.42057 15.9678 7.92155 15.9678 7.38379ZM17.6153 7.24023V7.38379C17.6153 7.72103 17.6472 8.03548 17.711 8.32715C17.7793 8.61882 17.8819 8.8763 18.0186 9.09961C18.1599 9.31836 18.3376 9.49154 18.5518 9.61914C18.7705 9.74219 19.028 9.80371 19.3243 9.80371C19.7116 9.80371 20.0284 9.72168 20.2745 9.55762C20.5251 9.39355 20.7165 9.17253 20.8487 8.89453C20.9854 8.61198 21.0811 8.29753 21.1358 7.95117V6.71387C21.1084 6.44499 21.0515 6.19434 20.9649 5.96191C20.8829 5.72949 20.7712 5.52669 20.6299 5.35352C20.4886 5.17578 20.3109 5.03906 20.0967 4.94336C19.8825 4.8431 19.6296 4.79297 19.3379 4.79297C19.0417 4.79297 18.7842 4.85677 18.5655 4.98438C18.3467 5.11198 18.1667 5.28743 18.0254 5.51074C17.8887 5.73405 17.7862 5.99382 17.7178 6.29004C17.6495 6.58626 17.6153 6.90299 17.6153 7.24023ZM25.962 0.5V11H24.3077V0.5H25.962ZM29.5303 3.60352V11H27.876V3.60352H29.5303ZM27.7666 1.66211C27.7666 1.41146 27.8487 1.2041 28.0127 1.04004C28.1814 0.871419 28.4138 0.787109 28.71 0.787109C29.0017 0.787109 29.2318 0.871419 29.4004 1.04004C29.569 1.2041 29.6534 1.41146 29.6534 1.66211C29.6534 1.9082 29.569 2.11328 29.4004 2.27734C29.2318 2.44141 29.0017 2.52344 28.71 2.52344C28.4138 2.52344 28.1814 2.44141 28.0127 2.27734C27.8487 2.11328 27.7666 1.9082 27.7666 1.66211ZM35.4844 8.99707C35.4844 8.83301 35.4434 8.6849 35.3614 8.55273C35.2793 8.41602 35.1221 8.29297 34.8897 8.18359C34.6618 8.07422 34.3246 7.97396 33.878 7.88281C33.486 7.79622 33.126 7.69368 32.7979 7.5752C32.4743 7.45215 32.1963 7.30404 31.9639 7.13086C31.7315 6.95768 31.5515 6.7526 31.4239 6.51562C31.2963 6.27865 31.2325 6.00521 31.2325 5.69531C31.2325 5.39453 31.2985 5.1097 31.4307 4.84082C31.5629 4.57194 31.752 4.33496 31.9981 4.12988C32.2442 3.9248 32.5427 3.76302 32.8936 3.64453C33.2491 3.52604 33.6455 3.4668 34.083 3.4668C34.7028 3.4668 35.2338 3.57161 35.6758 3.78125C36.1224 3.98633 36.4642 4.2666 36.7012 4.62207C36.9382 4.97298 37.0567 5.36947 37.0567 5.81152H35.4092C35.4092 5.61556 35.3591 5.43327 35.2588 5.26465C35.1631 5.09147 35.0173 4.95247 34.8213 4.84766C34.6254 4.73828 34.3793 4.68359 34.083 4.68359C33.8005 4.68359 33.5658 4.72917 33.3789 4.82031C33.1967 4.9069 33.0599 5.02083 32.9688 5.16211C32.8822 5.30339 32.8389 5.45833 32.8389 5.62695C32.8389 5.75 32.8617 5.86165 32.9073 5.96191C32.9574 6.05762 33.0394 6.14648 33.1534 6.22852C33.2673 6.30599 33.4222 6.37891 33.6182 6.44727C33.8187 6.51562 34.0694 6.58171 34.3702 6.64551C34.9353 6.764 35.4206 6.91667 35.8262 7.10352C36.2364 7.28581 36.5508 7.52279 36.7696 7.81445C36.9883 8.10156 37.0977 8.46615 37.0977 8.9082C37.0977 9.23633 37.0271 9.53711 36.8858 9.81055C36.7491 10.0794 36.5485 10.3141 36.2842 10.5146C36.0199 10.7106 35.7032 10.8633 35.334 10.9727C34.9694 11.082 34.5593 11.1367 34.1036 11.1367C33.4336 11.1367 32.8662 11.0182 32.4014 10.7812C31.9366 10.5397 31.5834 10.2321 31.3418 9.8584C31.1049 9.48014 30.9864 9.08822 30.9864 8.68262H32.5791C32.5974 8.98796 32.6817 9.23177 32.8321 9.41406C32.987 9.5918 33.1784 9.72168 33.4063 9.80371C33.6387 9.88118 33.878 9.91992 34.1241 9.91992C34.4203 9.91992 34.6687 9.88118 34.8692 9.80371C35.0697 9.72168 35.2224 9.6123 35.3272 9.47559C35.432 9.33431 35.4844 9.1748 35.4844 8.99707ZM40.167 0.5V11H38.5264V0.5H40.167ZM39.8799 7.02832L39.3467 7.02148C39.3513 6.51107 39.4219 6.03939 39.5586 5.60645C39.6999 5.1735 39.8959 4.79753 40.1465 4.47852C40.4017 4.15495 40.7071 3.90658 41.0625 3.7334C41.418 3.55566 41.8122 3.4668 42.2452 3.4668C42.6097 3.4668 42.9379 3.51693 43.2295 3.61719C43.5258 3.71745 43.781 3.87923 43.9952 4.10254C44.2093 4.32129 44.3711 4.6084 44.4805 4.96387C44.5944 5.31478 44.6514 5.74316 44.6514 6.24902V11H42.9971V6.23535C42.9971 5.87988 42.9447 5.59733 42.8399 5.3877C42.7396 5.17806 42.5915 5.02767 42.3955 4.93652C42.1996 4.84082 41.9603 4.79297 41.6778 4.79297C41.3815 4.79297 41.1195 4.85221 40.8916 4.9707C40.6683 5.08919 40.4815 5.25098 40.3311 5.45605C40.1807 5.66113 40.0668 5.89811 39.9893 6.16699C39.9164 6.43587 39.8799 6.72298 39.8799 7.02832Z" fill="#212121"/>
</svg>
