<svg width="84" height="36" viewBox="0 0 84 36" fill="none" xmlns="http://www.w3.org/2000/svg">
<rect width="83.13" height="36" rx="8" fill="#00798A"/>
<path d="M22.248 20.4365C22.248 20.2314 22.2161 20.0492 22.1523 19.8896C22.0931 19.7301 21.986 19.5843 21.8311 19.4521C21.6761 19.32 21.4574 19.1924 21.1748 19.0693C20.8968 18.9417 20.5413 18.8118 20.1084 18.6797C19.6344 18.5339 19.1969 18.3721 18.7959 18.1943C18.3994 18.012 18.0531 17.8024 17.7568 17.5654C17.4606 17.3239 17.2305 17.0482 17.0664 16.7383C16.9023 16.4238 16.8203 16.0615 16.8203 15.6514C16.8203 15.2458 16.9046 14.8766 17.0732 14.5439C17.2464 14.2113 17.4902 13.9242 17.8047 13.6826C18.1237 13.4365 18.4997 13.2474 18.9326 13.1152C19.3656 12.9785 19.8441 12.9102 20.3682 12.9102C21.1064 12.9102 21.7422 13.0469 22.2754 13.3203C22.8132 13.5938 23.2256 13.9606 23.5127 14.4209C23.8044 14.8812 23.9502 15.3893 23.9502 15.9453H22.248C22.248 15.6172 22.1774 15.3278 22.0361 15.0771C21.8994 14.8219 21.6898 14.6214 21.4072 14.4756C21.1292 14.3298 20.776 14.2568 20.3477 14.2568C19.9421 14.2568 19.6048 14.3184 19.3359 14.4414C19.0671 14.5645 18.8665 14.7308 18.7344 14.9404C18.6022 15.1501 18.5361 15.387 18.5361 15.6514C18.5361 15.8382 18.5794 16.0091 18.666 16.1641C18.7526 16.3145 18.8848 16.4557 19.0625 16.5879C19.2402 16.7155 19.4635 16.8363 19.7324 16.9502C20.0013 17.0641 20.318 17.1735 20.6826 17.2783C21.234 17.4424 21.7148 17.6247 22.125 17.8252C22.5352 18.0212 22.877 18.2445 23.1504 18.4951C23.4238 18.7458 23.6289 19.0306 23.7656 19.3496C23.9023 19.6641 23.9707 20.0218 23.9707 20.4229C23.9707 20.8421 23.8864 21.2204 23.7178 21.5576C23.5492 21.8903 23.3076 22.1751 22.9932 22.4121C22.6833 22.6445 22.3096 22.8245 21.8721 22.9521C21.4391 23.0752 20.9561 23.1367 20.4229 23.1367C19.9443 23.1367 19.4727 23.0729 19.0078 22.9453C18.5475 22.8177 18.1283 22.624 17.75 22.3643C17.3717 22.0999 17.071 21.7718 16.8477 21.3799C16.6243 20.9834 16.5127 20.5208 16.5127 19.9922H18.2285C18.2285 20.3158 18.2832 20.5915 18.3926 20.8193C18.5065 21.0472 18.6637 21.234 18.8643 21.3799C19.0648 21.5212 19.2972 21.626 19.5615 21.6943C19.8304 21.7627 20.1175 21.7969 20.4229 21.7969C20.8239 21.7969 21.1589 21.7399 21.4277 21.626C21.7012 21.512 21.9062 21.3525 22.043 21.1475C22.1797 20.9424 22.248 20.7054 22.248 20.4365ZM27.0879 15.6035V23H25.4336V15.6035H27.0879ZM25.3242 13.6621C25.3242 13.4115 25.4062 13.2041 25.5703 13.04C25.7389 12.8714 25.9714 12.7871 26.2676 12.7871C26.5592 12.7871 26.7894 12.8714 26.958 13.04C27.1266 13.2041 27.2109 13.4115 27.2109 13.6621C27.2109 13.9082 27.1266 14.1133 26.958 14.2773C26.7894 14.4414 26.5592 14.5234 26.2676 14.5234C25.9714 14.5234 25.7389 14.4414 25.5703 14.2773C25.4062 14.1133 25.3242 13.9082 25.3242 13.6621ZM33.6299 15.6035H35.127V22.7949C35.127 23.4603 34.9857 24.0254 34.7031 24.4902C34.4206 24.9551 34.0264 25.3083 33.5205 25.5498C33.0146 25.7959 32.429 25.9189 31.7637 25.9189C31.4811 25.9189 31.1667 25.8779 30.8203 25.7959C30.4785 25.7139 30.1458 25.5817 29.8223 25.3994C29.5033 25.2217 29.2367 24.987 29.0225 24.6953L29.7949 23.7246C30.0592 24.0391 30.3509 24.2692 30.6699 24.415C30.9889 24.5609 31.3239 24.6338 31.6748 24.6338C32.0531 24.6338 32.3743 24.5632 32.6387 24.4219C32.9076 24.2852 33.1149 24.0824 33.2607 23.8135C33.4066 23.5446 33.4795 23.2165 33.4795 22.8291V17.2783L33.6299 15.6035ZM28.6055 19.3838V19.2402C28.6055 18.6797 28.6738 18.1693 28.8105 17.709C28.9473 17.2441 29.1432 16.8454 29.3984 16.5127C29.6536 16.1755 29.9635 15.918 30.3281 15.7402C30.6927 15.5579 31.1051 15.4668 31.5654 15.4668C32.0439 15.4668 32.4518 15.5534 32.7891 15.7266C33.1309 15.8997 33.4157 16.1481 33.6436 16.4717C33.8714 16.7907 34.0492 17.1735 34.1768 17.6201C34.3089 18.0622 34.4069 18.5544 34.4707 19.0967V19.5547C34.4115 20.0833 34.3112 20.5664 34.1699 21.0039C34.0286 21.4414 33.8418 21.8197 33.6094 22.1387C33.377 22.4577 33.0898 22.7038 32.748 22.877C32.4108 23.0501 32.012 23.1367 31.5518 23.1367C31.1006 23.1367 30.6927 23.0433 30.3281 22.8564C29.9681 22.6696 29.6582 22.4076 29.3984 22.0703C29.1432 21.7331 28.9473 21.3366 28.8105 20.8809C28.6738 20.4206 28.6055 19.9215 28.6055 19.3838ZM30.2529 19.2402V19.3838C30.2529 19.721 30.2848 20.0355 30.3486 20.3271C30.417 20.6188 30.5195 20.8763 30.6562 21.0996C30.7975 21.3184 30.9753 21.4915 31.1895 21.6191C31.4082 21.7422 31.6657 21.8037 31.9619 21.8037C32.3493 21.8037 32.666 21.7217 32.9121 21.5576C33.1628 21.3936 33.3542 21.1725 33.4863 20.8945C33.623 20.612 33.7188 20.2975 33.7734 19.9512V18.7139C33.7461 18.445 33.6891 18.1943 33.6025 17.9619C33.5205 17.7295 33.4089 17.5267 33.2676 17.3535C33.1263 17.1758 32.9486 17.0391 32.7344 16.9434C32.5202 16.8431 32.2673 16.793 31.9756 16.793C31.6794 16.793 31.4219 16.8568 31.2031 16.9844C30.9844 17.112 30.8044 17.2874 30.6631 17.5107C30.5264 17.734 30.4238 17.9938 30.3555 18.29C30.2871 18.5863 30.2529 18.903 30.2529 19.2402ZM38.4697 17.1826V23H36.8223V15.6035H38.374L38.4697 17.1826ZM38.1758 19.0283L37.6426 19.0215C37.6471 18.4974 37.7201 18.0166 37.8613 17.5791C38.0072 17.1416 38.2077 16.7656 38.4629 16.4512C38.7227 16.1367 39.0326 15.8952 39.3926 15.7266C39.7526 15.5534 40.1536 15.4668 40.5957 15.4668C40.9512 15.4668 41.2725 15.5169 41.5596 15.6172C41.8512 15.7129 42.0996 15.8701 42.3047 16.0889C42.5143 16.3076 42.6738 16.5924 42.7832 16.9434C42.8926 17.2897 42.9473 17.7158 42.9473 18.2217V23H41.293V18.2148C41.293 17.8594 41.2406 17.5791 41.1357 17.374C41.0355 17.1644 40.8874 17.0163 40.6914 16.9297C40.5 16.8385 40.2607 16.793 39.9736 16.793C39.6911 16.793 39.4382 16.8522 39.2148 16.9707C38.9915 17.0892 38.8024 17.251 38.6475 17.4561C38.4971 17.6611 38.3809 17.8981 38.2988 18.167C38.2168 18.4359 38.1758 18.723 38.1758 19.0283ZM52.5654 21.2568V15.6035H54.2197V23H52.6611L52.5654 21.2568ZM52.7979 19.7188L53.3516 19.7051C53.3516 20.2018 53.2969 20.6598 53.1875 21.0791C53.0781 21.4938 52.9095 21.8561 52.6816 22.166C52.4538 22.4714 52.1621 22.7106 51.8066 22.8838C51.4512 23.0524 51.0251 23.1367 50.5283 23.1367C50.1683 23.1367 49.8379 23.0843 49.5371 22.9795C49.2363 22.8747 48.9766 22.7129 48.7578 22.4941C48.5436 22.2754 48.3773 21.9906 48.2588 21.6396C48.1403 21.2887 48.0811 20.8695 48.0811 20.3818V15.6035H49.7285V20.3955C49.7285 20.6644 49.7604 20.89 49.8242 21.0723C49.888 21.25 49.9746 21.3936 50.084 21.5029C50.1934 21.6123 50.321 21.6898 50.4668 21.7354C50.6126 21.7809 50.7676 21.8037 50.9316 21.8037C51.401 21.8037 51.7702 21.7126 52.0391 21.5303C52.3125 21.3434 52.5062 21.0928 52.6201 20.7783C52.7386 20.4639 52.7979 20.1107 52.7979 19.7188ZM57.5625 17.0254V25.8438H55.915V15.6035H57.4326L57.5625 17.0254ZM62.3818 19.2334V19.377C62.3818 19.9147 62.318 20.4137 62.1904 20.874C62.0674 21.3298 61.8828 21.7285 61.6367 22.0703C61.3952 22.4076 61.0967 22.6696 60.7412 22.8564C60.3857 23.0433 59.9756 23.1367 59.5107 23.1367C59.0505 23.1367 58.6471 23.0524 58.3008 22.8838C57.959 22.7106 57.6696 22.4668 57.4326 22.1523C57.1956 21.8379 57.0042 21.4688 56.8584 21.0449C56.7171 20.6165 56.6169 20.1471 56.5576 19.6367V19.083C56.6169 18.5407 56.7171 18.0485 56.8584 17.6064C57.0042 17.1644 57.1956 16.7839 57.4326 16.4648C57.6696 16.1458 57.959 15.8997 58.3008 15.7266C58.6426 15.5534 59.0413 15.4668 59.4971 15.4668C59.9619 15.4668 60.3743 15.5579 60.7344 15.7402C61.0944 15.918 61.3975 16.1732 61.6436 16.5059C61.8896 16.834 62.0742 17.2305 62.1973 17.6953C62.3203 18.1556 62.3818 18.6683 62.3818 19.2334ZM60.7344 19.377V19.2334C60.7344 18.8916 60.7025 18.5749 60.6387 18.2832C60.5749 17.987 60.4746 17.7272 60.3379 17.5039C60.2012 17.2806 60.0257 17.1074 59.8115 16.9844C59.6019 16.8568 59.349 16.793 59.0527 16.793C58.7611 16.793 58.5104 16.8431 58.3008 16.9434C58.0911 17.0391 57.9157 17.1735 57.7744 17.3467C57.6331 17.5199 57.5238 17.7227 57.4463 17.9551C57.3688 18.1829 57.3141 18.4313 57.2822 18.7002V20.0264C57.3369 20.3545 57.4303 20.6553 57.5625 20.9287C57.6947 21.2021 57.8815 21.4209 58.123 21.585C58.3691 21.7445 58.6836 21.8242 59.0664 21.8242C59.3626 21.8242 59.6156 21.7604 59.8252 21.6328C60.0348 21.5052 60.2057 21.3298 60.3379 21.1064C60.4746 20.8786 60.5749 20.6165 60.6387 20.3203C60.7025 20.0241 60.7344 19.7096 60.7344 19.377Z" fill="white"/>
</svg>
