<svg width="37" height="14" viewBox="0 0 37 14" fill="none" xmlns="http://www.w3.org/2000/svg">
<path d="M6.24609 9.63965V11H1.24902V9.63965H6.24609ZM1.72754 1.04688V11H0.0117188V1.04688H1.72754ZM7.09375 7.38379V7.22656C7.09375 6.69336 7.17122 6.19889 7.32617 5.74316C7.48112 5.28288 7.70443 4.88411 7.99609 4.54688C8.29232 4.20508 8.65234 3.94076 9.07617 3.75391C9.50456 3.5625 9.98763 3.4668 10.5254 3.4668C11.0677 3.4668 11.5508 3.5625 11.9746 3.75391C12.403 3.94076 12.7653 4.20508 13.0615 4.54688C13.3577 4.88411 13.5833 5.28288 13.7383 5.74316C13.8932 6.19889 13.9707 6.69336 13.9707 7.22656V7.38379C13.9707 7.91699 13.8932 8.41146 13.7383 8.86719C13.5833 9.32292 13.3577 9.72168 13.0615 10.0635C12.7653 10.4007 12.4053 10.665 11.9814 10.8564C11.5576 11.0433 11.0768 11.1367 10.5391 11.1367C9.99674 11.1367 9.51139 11.0433 9.08301 10.8564C8.65918 10.665 8.29915 10.4007 8.00293 10.0635C7.70671 9.72168 7.48112 9.32292 7.32617 8.86719C7.17122 8.41146 7.09375 7.91699 7.09375 7.38379ZM8.74121 7.22656V7.38379C8.74121 7.71647 8.77539 8.03092 8.84375 8.32715C8.91211 8.62337 9.01921 8.88314 9.16504 9.10645C9.31087 9.32975 9.49772 9.50521 9.72559 9.63281C9.95345 9.76042 10.2246 9.82422 10.5391 9.82422C10.8444 9.82422 11.1087 9.76042 11.332 9.63281C11.5599 9.50521 11.7467 9.32975 11.8926 9.10645C12.0384 8.88314 12.1455 8.62337 12.2139 8.32715C12.2868 8.03092 12.3232 7.71647 12.3232 7.38379V7.22656C12.3232 6.89844 12.2868 6.58854 12.2139 6.29688C12.1455 6.00065 12.0361 5.73861 11.8857 5.51074C11.7399 5.28288 11.5531 5.10514 11.3252 4.97754C11.1019 4.84538 10.8353 4.7793 10.5254 4.7793C10.2155 4.7793 9.94661 4.84538 9.71875 4.97754C9.49544 5.10514 9.31087 5.28288 9.16504 5.51074C9.01921 5.73861 8.91211 6.00065 8.84375 6.29688C8.77539 6.58854 8.74121 6.89844 8.74121 7.22656ZM20.0889 3.60352H21.5859V10.7949C21.5859 11.4603 21.4447 12.0254 21.1621 12.4902C20.8796 12.9551 20.4854 13.3083 19.9795 13.5498C19.4736 13.7959 18.888 13.9189 18.2227 13.9189C17.9401 13.9189 17.6257 13.8779 17.2793 13.7959C16.9375 13.7139 16.6048 13.5817 16.2812 13.3994C15.9622 13.2217 15.6956 12.987 15.4814 12.6953L16.2539 11.7246C16.5182 12.0391 16.8099 12.2692 17.1289 12.415C17.4479 12.5609 17.7829 12.6338 18.1338 12.6338C18.512 12.6338 18.8333 12.5632 19.0977 12.4219C19.3665 12.2852 19.5739 12.0824 19.7197 11.8135C19.8656 11.5446 19.9385 11.2165 19.9385 10.8291V5.27832L20.0889 3.60352ZM15.0645 7.38379V7.24023C15.0645 6.67969 15.1328 6.16927 15.2695 5.70898C15.4062 5.24414 15.6022 4.84538 15.8574 4.5127C16.1126 4.17546 16.4225 3.91797 16.7871 3.74023C17.1517 3.55794 17.5641 3.4668 18.0244 3.4668C18.5029 3.4668 18.9108 3.55339 19.248 3.72656C19.5898 3.89974 19.8747 4.14811 20.1025 4.47168C20.3304 4.79069 20.5081 5.1735 20.6357 5.62012C20.7679 6.06217 20.8659 6.55436 20.9297 7.09668V7.55469C20.8704 8.08333 20.7702 8.56641 20.6289 9.00391C20.4876 9.44141 20.3008 9.81966 20.0684 10.1387C19.8359 10.4577 19.5488 10.7038 19.207 10.877C18.8698 11.0501 18.471 11.1367 18.0107 11.1367C17.5596 11.1367 17.1517 11.0433 16.7871 10.8564C16.4271 10.6696 16.1172 10.4076 15.8574 10.0703C15.6022 9.73307 15.4062 9.33659 15.2695 8.88086C15.1328 8.42057 15.0645 7.92155 15.0645 7.38379ZM16.7119 7.24023V7.38379C16.7119 7.72103 16.7438 8.03548 16.8076 8.32715C16.876 8.61882 16.9785 8.8763 17.1152 9.09961C17.2565 9.31836 17.4342 9.49154 17.6484 9.61914C17.8672 9.74219 18.1247 9.80371 18.4209 9.80371C18.8083 9.80371 19.125 9.72168 19.3711 9.55762C19.6217 9.39355 19.8132 9.17253 19.9453 8.89453C20.082 8.61198 20.1777 8.29753 20.2324 7.95117V6.71387C20.2051 6.44499 20.1481 6.19434 20.0615 5.96191C19.9795 5.72949 19.8678 5.52669 19.7266 5.35352C19.5853 5.17578 19.4076 5.03906 19.1934 4.94336C18.9792 4.8431 18.7262 4.79297 18.4346 4.79297C18.1383 4.79297 17.8809 4.85677 17.6621 4.98438C17.4434 5.11198 17.2633 5.28743 17.1221 5.51074C16.9854 5.73405 16.8828 5.99382 16.8145 6.29004C16.7461 6.58626 16.7119 6.90299 16.7119 7.24023ZM28.5449 3.60352V11H26.8906V3.60352H28.5449ZM26.7812 1.66211C26.7812 1.41146 26.8633 1.2041 27.0273 1.04004C27.196 0.871419 27.4284 0.787109 27.7246 0.787109C28.0163 0.787109 28.2464 0.871419 28.415 1.04004C28.5837 1.2041 28.668 1.41146 28.668 1.66211C28.668 1.9082 28.5837 2.11328 28.415 2.27734C28.2464 2.44141 28.0163 2.52344 27.7246 2.52344C27.4284 2.52344 27.196 2.44141 27.0273 2.27734C26.8633 2.11328 26.7812 1.9082 26.7812 1.66211ZM31.9834 5.18262V11H30.3359V3.60352H31.8877L31.9834 5.18262ZM31.6895 7.02832L31.1562 7.02148C31.1608 6.4974 31.2337 6.0166 31.375 5.5791C31.5208 5.1416 31.7214 4.76562 31.9766 4.45117C32.2363 4.13672 32.5462 3.89518 32.9062 3.72656C33.2663 3.55339 33.6673 3.4668 34.1094 3.4668C34.4648 3.4668 34.7861 3.51693 35.0732 3.61719C35.3649 3.71289 35.6133 3.87012 35.8184 4.08887C36.028 4.30762 36.1875 4.59245 36.2969 4.94336C36.4062 5.28971 36.4609 5.71582 36.4609 6.22168V11H34.8066V6.21484C34.8066 5.85938 34.7542 5.5791 34.6494 5.37402C34.5492 5.16439 34.401 5.01628 34.2051 4.92969C34.0137 4.83854 33.7744 4.79297 33.4873 4.79297C33.2048 4.79297 32.9518 4.85221 32.7285 4.9707C32.5052 5.08919 32.3161 5.25098 32.1611 5.45605C32.0107 5.66113 31.8945 5.89811 31.8125 6.16699C31.7305 6.43587 31.6895 6.72298 31.6895 7.02832Z" fill="#212121"/>
</svg>
