<svg width="173" height="41" viewBox="0 0 173 41" fill="none" xmlns="http://www.w3.org/2000/svg">
<rect x="1" y="1" width="170.41" height="38.5841" rx="7" fill="white"/>
<rect x="1" y="1" width="170.41" height="38.5841" rx="7" stroke="#00798A" stroke-width="2"/>
<path d="M31.7425 18.502H29.2064L29.1927 17.251H31.4075C31.7812 17.251 32.098 17.1963 32.3577 17.0869C32.6221 16.973 32.8226 16.8112 32.9593 16.6016C33.096 16.3874 33.1644 16.1299 33.1644 15.8291C33.1644 15.4964 33.1006 15.2253 32.973 15.0156C32.8454 14.806 32.6494 14.6533 32.3851 14.5576C32.1253 14.4619 31.7926 14.4141 31.387 14.4141H29.7259V23H28.0101V13.0469H31.387C31.9339 13.0469 32.4215 13.0993 32.8499 13.2041C33.2829 13.3089 33.6497 13.473 33.9505 13.6963C34.2558 13.915 34.486 14.193 34.6409 14.5303C34.8004 14.8675 34.8802 15.2686 34.8802 15.7334C34.8802 16.1436 34.7822 16.5195 34.5863 16.8613C34.3903 17.1986 34.1009 17.4743 33.7181 17.6885C33.3353 17.9027 32.859 18.0303 32.2894 18.0713L31.7425 18.502ZM31.6673 23H28.6663L29.4388 21.6396H31.6673C32.0547 21.6396 32.3782 21.5758 32.638 21.4482C32.8978 21.3161 33.0915 21.1361 33.2191 20.9082C33.3512 20.6758 33.4173 20.4046 33.4173 20.0947C33.4173 19.7712 33.3603 19.4909 33.2464 19.2539C33.1325 19.0124 32.9525 18.8278 32.7064 18.7002C32.4603 18.568 32.139 18.502 31.7425 18.502H29.8148L29.8284 17.251H32.3372L32.7269 17.7227C33.2738 17.7409 33.7226 17.8617 34.0736 18.085C34.429 18.3083 34.6933 18.5977 34.8665 18.9531C35.0397 19.3086 35.1263 19.6914 35.1263 20.1016C35.1263 20.735 34.9873 21.266 34.7093 21.6943C34.4359 22.1227 34.0417 22.4486 33.5267 22.6719C33.0117 22.8906 32.3919 23 31.6673 23ZM38.346 17.0117V23H36.6986V15.6035H38.2708L38.346 17.0117ZM40.6087 15.5557L40.595 17.0869C40.4948 17.0687 40.3854 17.055 40.2669 17.0459C40.153 17.0368 40.039 17.0322 39.9251 17.0322C39.6426 17.0322 39.3942 17.0732 39.18 17.1553C38.9658 17.2327 38.7858 17.3467 38.64 17.4971C38.4987 17.6429 38.3893 17.8206 38.3118 18.0303C38.2344 18.2399 38.1888 18.4746 38.1751 18.7344L37.7991 18.7617C37.7991 18.2969 37.8447 17.8662 37.9359 17.4697C38.027 17.0732 38.1637 16.7246 38.346 16.4238C38.5329 16.123 38.7653 15.8883 39.0433 15.7197C39.3258 15.5511 39.6517 15.4668 40.0208 15.4668C40.1211 15.4668 40.2282 15.4759 40.3421 15.4941C40.4606 15.5124 40.5495 15.5329 40.6087 15.5557ZM41.1488 19.3838V19.2266C41.1488 18.6934 41.2262 18.1989 41.3812 17.7432C41.5361 17.2829 41.7594 16.8841 42.0511 16.5469C42.3473 16.2051 42.7073 15.9408 43.1312 15.7539C43.5596 15.5625 44.0426 15.4668 44.5804 15.4668C45.1227 15.4668 45.6058 15.5625 46.0296 15.7539C46.458 15.9408 46.8203 16.2051 47.1165 16.5469C47.4127 16.8841 47.6383 17.2829 47.7933 17.7432C47.9482 18.1989 48.0257 18.6934 48.0257 19.2266V19.3838C48.0257 19.917 47.9482 20.4115 47.7933 20.8672C47.6383 21.3229 47.4127 21.7217 47.1165 22.0635C46.8203 22.4007 46.4603 22.665 46.0364 22.8564C45.6126 23.0433 45.1318 23.1367 44.5941 23.1367C44.0517 23.1367 43.5664 23.0433 43.138 22.8564C42.7142 22.665 42.3542 22.4007 42.0579 22.0635C41.7617 21.7217 41.5361 21.3229 41.3812 20.8672C41.2262 20.4115 41.1488 19.917 41.1488 19.3838ZM42.7962 19.2266V19.3838C42.7962 19.7165 42.8304 20.0309 42.8988 20.3271C42.9671 20.6234 43.0742 20.8831 43.22 21.1064C43.3659 21.3298 43.5527 21.5052 43.7806 21.6328C44.0085 21.7604 44.2796 21.8242 44.5941 21.8242C44.8994 21.8242 45.1637 21.7604 45.387 21.6328C45.6149 21.5052 45.8017 21.3298 45.9476 21.1064C46.0934 20.8831 46.2005 20.6234 46.2689 20.3271C46.3418 20.0309 46.3782 19.7165 46.3782 19.3838V19.2266C46.3782 18.8984 46.3418 18.5885 46.2689 18.2969C46.2005 18.0007 46.0911 17.7386 45.9407 17.5107C45.7949 17.2829 45.6081 17.1051 45.3802 16.9775C45.1569 16.8454 44.8903 16.7793 44.5804 16.7793C44.2705 16.7793 44.0016 16.8454 43.7738 16.9775C43.5504 17.1051 43.3659 17.2829 43.22 17.5107C43.0742 17.7386 42.9671 18.0007 42.8988 18.2969C42.8304 18.5885 42.7962 18.8984 42.7962 19.2266ZM51.4163 21.3594L53.1253 15.6035H54.178L53.8909 17.3262L52.1683 23H51.2249L51.4163 21.3594ZM50.4114 15.6035L51.7445 21.3867L51.8538 23H50.8011L48.7982 15.6035H50.4114ZM55.7777 21.3184L57.0696 15.6035H58.6761L56.68 23H55.6273L55.7777 21.3184ZM54.3558 15.6035L56.0443 21.291L56.2562 23H55.3128L53.5696 17.3193L53.2825 15.6035H54.3558ZM63.9466 20.9971C63.9466 20.833 63.9056 20.6849 63.8236 20.5527C63.7415 20.416 63.5843 20.293 63.3519 20.1836C63.124 20.0742 62.7868 19.974 62.3402 19.8828C61.9482 19.7962 61.5882 19.6937 61.2601 19.5752C60.9365 19.4521 60.6585 19.304 60.4261 19.1309C60.1937 18.9577 60.0137 18.7526 59.8861 18.5156C59.7585 18.2786 59.6946 18.0052 59.6946 17.6953C59.6946 17.3945 59.7607 17.1097 59.8929 16.8408C60.0251 16.5719 60.2142 16.335 60.4603 16.1299C60.7064 15.9248 61.0049 15.763 61.3558 15.6445C61.7113 15.526 62.1077 15.4668 62.5452 15.4668C63.165 15.4668 63.696 15.5716 64.138 15.7812C64.5846 15.9863 64.9264 16.2666 65.1634 16.6221C65.4004 16.973 65.5189 17.3695 65.5189 17.8115H63.8714C63.8714 17.6156 63.8213 17.4333 63.721 17.2646C63.6253 17.0915 63.4795 16.9525 63.2835 16.8477C63.0876 16.7383 62.8415 16.6836 62.5452 16.6836C62.2627 16.6836 62.028 16.7292 61.8411 16.8203C61.6588 16.9069 61.5221 17.0208 61.431 17.1621C61.3444 17.3034 61.3011 17.4583 61.3011 17.627C61.3011 17.75 61.3239 17.8617 61.3695 17.9619C61.4196 18.0576 61.5016 18.1465 61.6155 18.2285C61.7295 18.306 61.8844 18.3789 62.0804 18.4473C62.2809 18.5156 62.5316 18.5817 62.8323 18.6455C63.3974 18.764 63.8828 18.9167 64.2884 19.1035C64.6986 19.2858 65.013 19.5228 65.2318 19.8145C65.4505 20.1016 65.5599 20.4661 65.5599 20.9082C65.5599 21.2363 65.4892 21.5371 65.348 21.8105C65.2113 22.0794 65.0107 22.3141 64.7464 22.5146C64.4821 22.7106 64.1654 22.8633 63.7962 22.9727C63.4316 23.082 63.0215 23.1367 62.5657 23.1367C61.8958 23.1367 61.3284 23.0182 60.8636 22.7812C60.3988 22.5397 60.0456 22.2321 59.804 21.8584C59.567 21.4801 59.4486 21.0882 59.4486 20.6826H61.0413C61.0596 20.988 61.1439 21.2318 61.2943 21.4141C61.4492 21.5918 61.6406 21.7217 61.8685 21.8037C62.1009 21.8812 62.3402 21.9199 62.5863 21.9199C62.8825 21.9199 63.1308 21.8812 63.3314 21.8037C63.5319 21.7217 63.6846 21.6123 63.7894 21.4756C63.8942 21.3343 63.9466 21.1748 63.9466 20.9971ZM70.263 23.1367C69.7161 23.1367 69.2217 23.0479 68.7796 22.8701C68.3421 22.6878 67.9684 22.4349 67.6585 22.1113C67.3532 21.7878 67.1185 21.4072 66.9544 20.9697C66.7904 20.5322 66.7083 20.0605 66.7083 19.5547V19.2812C66.7083 18.7025 66.7926 18.1784 66.9613 17.709C67.1299 17.2396 67.3646 16.8385 67.6654 16.5059C67.9661 16.1686 68.3216 15.9111 68.7318 15.7334C69.1419 15.5557 69.5863 15.4668 70.0648 15.4668C70.5934 15.4668 71.056 15.5557 71.4525 15.7334C71.8489 15.9111 72.1771 16.1618 72.4368 16.4854C72.7012 16.8044 72.8971 17.1849 73.0247 17.627C73.1569 18.069 73.223 18.5566 73.223 19.0898V19.7939H67.5081V18.6113H71.596V18.4814C71.5869 18.1852 71.5277 17.9072 71.4183 17.6475C71.3135 17.3877 71.1517 17.1781 70.9329 17.0186C70.7142 16.859 70.4225 16.7793 70.0579 16.7793C69.7845 16.7793 69.5407 16.8385 69.3265 16.957C69.1168 17.071 68.9414 17.2373 68.8001 17.4561C68.6588 17.6748 68.5495 17.9391 68.472 18.249C68.3991 18.5544 68.3626 18.8984 68.3626 19.2812V19.5547C68.3626 19.8783 68.4059 20.179 68.4925 20.457C68.5836 20.7305 68.7158 20.9697 68.889 21.1748C69.0622 21.3799 69.2718 21.5417 69.5179 21.6602C69.764 21.7741 70.0443 21.8311 70.3587 21.8311C70.7552 21.8311 71.1084 21.7513 71.4183 21.5918C71.7282 21.4323 71.9971 21.2067 72.2249 20.915L73.0931 21.7559C72.9336 21.9883 72.7262 22.2116 72.471 22.4258C72.2158 22.6354 71.9036 22.8063 71.5345 22.9385C71.1699 23.0706 70.7461 23.1367 70.263 23.1367ZM79.7581 15.6035V23H78.1038V15.6035H79.7581ZM77.9945 13.6621C77.9945 13.4115 78.0765 13.2041 78.2405 13.04C78.4092 12.8714 78.6416 12.7871 78.9378 12.7871C79.2295 12.7871 79.4596 12.8714 79.6282 13.04C79.7969 13.2041 79.8812 13.4115 79.8812 13.6621C79.8812 13.9082 79.7969 14.1133 79.6282 14.2773C79.4596 14.4414 79.2295 14.5234 78.9378 14.5234C78.6416 14.5234 78.4092 14.4414 78.2405 14.2773C78.0765 14.1133 77.9945 13.9082 77.9945 13.6621ZM83.1966 17.1826V23H81.5491V15.6035H83.1009L83.1966 17.1826ZM82.9027 19.0283L82.3695 19.0215C82.374 18.4974 82.4469 18.0166 82.5882 17.5791C82.734 17.1416 82.9346 16.7656 83.1898 16.4512C83.4495 16.1367 83.7594 15.8952 84.1195 15.7266C84.4795 15.5534 84.8805 15.4668 85.3226 15.4668C85.678 15.4668 85.9993 15.5169 86.2864 15.6172C86.5781 15.7129 86.8265 15.8701 87.0316 16.0889C87.2412 16.3076 87.4007 16.5924 87.5101 16.9434C87.6195 17.2897 87.6741 17.7158 87.6741 18.2217V23H86.0198V18.2148C86.0198 17.8594 85.9674 17.5791 85.8626 17.374C85.7624 17.1644 85.6142 17.0163 85.4183 16.9297C85.2269 16.8385 84.9876 16.793 84.7005 16.793C84.418 16.793 84.165 16.8522 83.9417 16.9707C83.7184 17.0892 83.5293 17.251 83.3743 17.4561C83.2239 17.6611 83.1077 17.8981 83.0257 18.167C82.9437 18.4359 82.9027 18.723 82.9027 19.0283ZM94.4896 17.1074V23H92.8421V15.6035H94.3939L94.4896 17.1074ZM94.223 19.0283L93.6624 19.0215C93.6624 18.5111 93.7262 18.0394 93.8538 17.6064C93.9814 17.1735 94.1683 16.7975 94.4144 16.4785C94.6605 16.1549 94.9658 15.9066 95.3304 15.7334C95.6995 15.5557 96.1256 15.4668 96.6087 15.4668C96.946 15.4668 97.2536 15.5169 97.5316 15.6172C97.8141 15.7129 98.0579 15.8656 98.263 16.0752C98.4726 16.2848 98.6321 16.5537 98.7415 16.8818C98.8555 17.21 98.9124 17.6064 98.9124 18.0713V23H97.265V18.2148C97.265 17.8548 97.2103 17.5723 97.1009 17.3672C96.9961 17.1621 96.8434 17.0163 96.6429 16.9297C96.4469 16.8385 96.2122 16.793 95.9388 16.793C95.6289 16.793 95.3646 16.8522 95.1458 16.9707C94.9316 17.0892 94.7562 17.251 94.6195 17.4561C94.4827 17.6611 94.3825 17.8981 94.3187 18.167C94.2549 18.4359 94.223 18.723 94.223 19.0283ZM98.8099 18.5908L98.0374 18.7617C98.0374 18.3151 98.0989 17.8936 98.222 17.4971C98.3496 17.096 98.5342 16.7451 98.7757 16.4443C99.0218 16.139 99.3249 15.8997 99.6849 15.7266C100.045 15.5534 100.457 15.4668 100.922 15.4668C101.3 15.4668 101.638 15.5192 101.934 15.624C102.235 15.7243 102.49 15.8838 102.7 16.1025C102.909 16.3213 103.069 16.6061 103.178 16.957C103.287 17.3034 103.342 17.7227 103.342 18.2148V23H101.688V18.208C101.688 17.8343 101.633 17.5449 101.524 17.3398C101.419 17.1348 101.269 16.9935 101.073 16.916C100.877 16.834 100.642 16.793 100.368 16.793C100.113 16.793 99.8877 16.8408 99.6917 16.9365C99.5003 17.0277 99.3385 17.1576 99.2064 17.3262C99.0742 17.4902 98.9739 17.6794 98.9056 17.8936C98.8418 18.1077 98.8099 18.3402 98.8099 18.5908ZM109.207 21.5166V17.9893C109.207 17.7249 109.159 17.4971 109.064 17.3057C108.968 17.1143 108.822 16.9661 108.626 16.8613C108.435 16.7565 108.193 16.7041 107.902 16.7041C107.633 16.7041 107.4 16.7497 107.204 16.8408C107.008 16.932 106.856 17.055 106.746 17.21C106.637 17.3649 106.582 17.5404 106.582 17.7363H104.942C104.942 17.4447 105.012 17.1621 105.154 16.8887C105.295 16.6152 105.5 16.3714 105.769 16.1572C106.038 15.943 106.359 15.7744 106.733 15.6514C107.106 15.5283 107.526 15.4668 107.991 15.4668C108.547 15.4668 109.039 15.5602 109.467 15.7471C109.9 15.9339 110.24 16.2165 110.486 16.5947C110.736 16.9684 110.862 17.4378 110.862 18.0029V21.291C110.862 21.6283 110.884 21.9313 110.93 22.2002C110.98 22.4645 111.051 22.6947 111.142 22.8906V23H109.453C109.376 22.8223 109.314 22.5967 109.269 22.3232C109.228 22.0452 109.207 21.7764 109.207 21.5166ZM109.447 18.502L109.46 19.5205H108.278C107.972 19.5205 107.703 19.5501 107.471 19.6094C107.239 19.6641 107.045 19.7461 106.89 19.8555C106.735 19.9648 106.619 20.097 106.541 20.252C106.464 20.4069 106.425 20.5824 106.425 20.7783C106.425 20.9743 106.471 21.1543 106.562 21.3184C106.653 21.4779 106.785 21.6032 106.958 21.6943C107.136 21.7855 107.35 21.8311 107.601 21.8311C107.938 21.8311 108.232 21.7627 108.483 21.626C108.738 21.4847 108.938 21.3138 109.084 21.1133C109.23 20.9082 109.308 20.7145 109.317 20.5322L109.85 21.2637C109.795 21.4505 109.702 21.651 109.57 21.8652C109.437 22.0794 109.264 22.2845 109.05 22.4805C108.84 22.6719 108.588 22.8291 108.291 22.9521C108 23.0752 107.662 23.1367 107.28 23.1367C106.797 23.1367 106.366 23.041 105.988 22.8496C105.609 22.6536 105.313 22.3916 105.099 22.0635C104.885 21.7308 104.778 21.3548 104.778 20.9355C104.778 20.5436 104.851 20.1973 104.996 19.8965C105.147 19.5911 105.366 19.3359 105.653 19.1309C105.944 18.9258 106.3 18.7708 106.719 18.666C107.138 18.5566 107.617 18.502 108.155 18.502H109.447ZM114.239 17.0254V25.8438H112.591V15.6035H114.109L114.239 17.0254ZM119.058 19.2334V19.377C119.058 19.9147 118.994 20.4137 118.867 20.874C118.743 21.3298 118.559 21.7285 118.313 22.0703C118.071 22.4076 117.773 22.6696 117.417 22.8564C117.062 23.0433 116.652 23.1367 116.187 23.1367C115.727 23.1367 115.323 23.0524 114.977 22.8838C114.635 22.7106 114.346 22.4668 114.109 22.1523C113.872 21.8379 113.68 21.4688 113.534 21.0449C113.393 20.6165 113.293 20.1471 113.234 19.6367V19.083C113.293 18.5407 113.393 18.0485 113.534 17.6064C113.68 17.1644 113.872 16.7839 114.109 16.4648C114.346 16.1458 114.635 15.8997 114.977 15.7266C115.319 15.5534 115.717 15.4668 116.173 15.4668C116.638 15.4668 117.05 15.5579 117.41 15.7402C117.77 15.918 118.074 16.1732 118.32 16.5059C118.566 16.834 118.75 17.2305 118.873 17.6953C118.996 18.1556 119.058 18.6683 119.058 19.2334ZM117.41 19.377V19.2334C117.41 18.8916 117.379 18.5749 117.315 18.2832C117.251 17.987 117.151 17.7272 117.014 17.5039C116.877 17.2806 116.702 17.1074 116.488 16.9844C116.278 16.8568 116.025 16.793 115.729 16.793C115.437 16.793 115.187 16.8431 114.977 16.9434C114.767 17.0391 114.592 17.1735 114.451 17.3467C114.309 17.5199 114.2 17.7227 114.122 17.9551C114.045 18.1829 113.99 18.4313 113.958 18.7002V20.0264C114.013 20.3545 114.106 20.6553 114.239 20.9287C114.371 21.2021 114.558 21.4209 114.799 21.585C115.045 21.7445 115.36 21.8242 115.743 21.8242C116.039 21.8242 116.292 21.7604 116.501 21.6328C116.711 21.5052 116.882 21.3298 117.014 21.1064C117.151 20.8786 117.251 20.6165 117.315 20.3203C117.379 20.0241 117.41 19.7096 117.41 19.377Z" fill="#00798A"/>
<g clip-path="url(#clip0_2_5948)">
<g clip-path="url(#clip1_2_5948)">
<g clip-path="url(#clip2_2_5948)">
<mask id="mask0_2_5948" style="mask-type:luminance" maskUnits="userSpaceOnUse" x="130" y="11" width="19" height="18">
<path d="M130.4 29L148.4 29V11L130.4 11V29Z" fill="white"/>
</mask>
<g mask="url(#mask0_2_5948)">
<path d="M130.4 28.2503C130.4 28.4492 130.479 28.64 130.62 28.7806C130.761 28.9213 130.951 29.0003 131.15 29.0003H136.025C136.174 29.0003 136.319 28.9563 136.442 28.8739C136.565 28.7914 136.661 28.6743 136.718 28.5373C136.775 28.4003 136.79 28.2495 136.761 28.104C136.732 27.9586 136.661 27.8249 136.556 27.72L134.914 26.0753C134.896 26.0579 134.883 26.0372 134.873 26.0144C134.864 25.9916 134.859 25.9672 134.859 25.9425C134.859 25.9179 134.864 25.8935 134.873 25.8707C134.883 25.8479 134.896 25.8272 134.914 25.8098L138.188 22.5391C138.364 22.3632 138.463 22.1247 138.463 21.8761C138.463 21.6274 138.364 21.3889 138.188 21.213C138.013 21.0372 137.774 20.9385 137.525 20.9385C137.277 20.9385 137.038 21.0372 136.862 21.213L133.588 24.4875C133.57 24.505 133.55 24.5189 133.527 24.5283C133.504 24.5378 133.48 24.5426 133.455 24.5426C133.43 24.5426 133.406 24.5378 133.383 24.5283C133.361 24.5189 133.34 24.505 133.322 24.4875L131.681 22.8458C131.611 22.776 131.528 22.7206 131.437 22.6828C131.346 22.645 131.249 22.6254 131.15 22.6253C131.052 22.625 130.954 22.6444 130.863 22.6823C130.726 22.7391 130.609 22.8353 130.527 22.9586C130.444 23.082 130.4 23.227 130.4 23.3753L130.4 28.2503Z" fill="#00798A"/>
<path d="M147.651 11L142.776 11C142.627 11 142.482 11.044 142.359 11.1264C142.236 11.2089 142.14 11.326 142.083 11.463C142.026 11.6 142.011 11.7508 142.04 11.8963C142.069 12.0417 142.14 12.1754 142.245 12.2802L143.887 13.925C143.904 13.9423 143.918 13.963 143.928 13.9857C143.937 14.0084 143.942 14.0328 143.942 14.0574C143.942 14.082 143.937 14.1063 143.928 14.129C143.918 14.1518 143.904 14.1724 143.887 14.1897L140.613 17.4642C140.525 17.5513 140.456 17.6547 140.409 17.7684C140.362 17.8822 140.338 18.0041 140.338 18.1272C140.338 18.2504 140.362 18.3723 140.409 18.4861C140.456 18.5998 140.525 18.7032 140.613 18.7902C140.7 18.8773 140.803 18.9464 140.917 18.9935C141.03 19.0406 141.152 19.0649 141.276 19.0649C141.399 19.0649 141.521 19.0406 141.634 18.9935C141.748 18.9464 141.851 18.8773 141.939 18.7902L145.213 15.5142C145.23 15.4968 145.251 15.4829 145.274 15.4735C145.297 15.464 145.321 15.4592 145.346 15.4592C145.37 15.4592 145.395 15.464 145.418 15.4735C145.44 15.4829 145.461 15.4968 145.479 15.5142L147.12 17.156C147.225 17.2609 147.359 17.3323 147.504 17.3612C147.65 17.3901 147.801 17.3752 147.938 17.3184C148.075 17.2615 148.192 17.1653 148.274 17.0419C148.357 16.9184 148.401 16.7734 148.401 16.625V11.75C148.401 11.5511 148.322 11.3603 148.181 11.2197C148.04 11.079 147.849 11 147.651 11Z" fill="#00798A"/>
</g>
</g>
</g>
</g>
<defs>
<clipPath id="clip0_2_5948">
<rect width="18" height="18" fill="white" transform="translate(130.4 11)"/>
</clipPath>
<clipPath id="clip1_2_5948">
<rect width="18" height="18" fill="white" transform="translate(130.4 11)"/>
</clipPath>
<clipPath id="clip2_2_5948">
<rect width="18" height="18" fill="white" transform="translate(130.4 11)"/>
</clipPath>
</defs>
</svg>
