<svg width="62" height="13" viewBox="0 0 62 13" fill="none" xmlns="http://www.w3.org/2000/svg">
<rect x="-2" width="64" height="12.165" rx="2.43301" fill="white"/>
<path fill-rule="evenodd" clip-rule="evenodd" d="M2.05514 2.83887C1.60724 2.83887 1.24414 3.20196 1.24414 3.64987V8.51586C1.24414 8.96378 1.60724 9.32686 2.05514 9.32686H6.11014C6.55805 9.32686 6.92113 8.96378 6.92113 8.51586V7.37515C6.92113 7.34275 6.95722 7.32341 6.98419 7.34137L8.7237 8.50106C8.9932 8.68074 9.35413 8.48756 9.35413 8.16369V4.00205C9.35413 3.67818 8.9932 3.485 8.7237 3.66465L6.98419 4.82434C6.95722 4.8423 6.92113 4.82299 6.92113 4.7906V3.64987C6.92113 3.20196 6.55805 2.83887 6.11014 2.83887H2.05514Z" fill="#707070"/>
<g clip-path="url(#clip0_48_12)">
<path d="M17.2629 5.47966V5.76478C17.2629 6.15682 17.2118 6.50846 17.1097 6.81972C17.0075 7.13097 16.8614 7.39589 16.6713 7.61448C16.4836 7.83308 16.2579 8.00058 15.9941 8.11701C15.7304 8.23105 15.4381 8.28808 15.1174 8.28808C14.799 8.28808 14.5079 8.23105 14.2442 8.11701C13.9829 8.00058 13.7559 7.83308 13.5635 7.61448C13.371 7.39589 13.2214 7.13097 13.1144 6.81972C13.0099 6.50846 12.9576 6.15682 12.9576 5.76478V5.47966C12.9576 5.08763 13.0099 4.73717 13.1144 4.42829C13.219 4.11704 13.3663 3.85211 13.5564 3.63352C13.7488 3.41256 13.9757 3.24505 14.2371 3.131C14.5008 3.01458 14.7919 2.95637 15.1103 2.95637C15.431 2.95637 15.7233 3.01458 15.987 3.131C16.2507 3.24505 16.4776 3.41256 16.6677 3.63352C16.8578 3.85211 17.0039 4.11704 17.1061 4.42829C17.2106 4.73717 17.2629 5.08763 17.2629 5.47966ZM16.3683 5.76478V5.47254C16.3683 5.18267 16.3398 4.92725 16.2828 4.70628C16.2282 4.48294 16.1462 4.29642 16.0369 4.14674C15.93 3.99467 15.7981 3.88063 15.6413 3.80459C15.4845 3.72619 15.3075 3.68698 15.1103 3.68698C14.9131 3.68698 14.7372 3.72619 14.5828 3.80459C14.4284 3.88063 14.2965 3.99467 14.1872 4.14674C14.0803 4.29642 13.9983 4.48294 13.9413 4.70628C13.8843 4.92725 13.8557 5.18267 13.8557 5.47254V5.76478C13.8557 6.05465 13.8843 6.31126 13.9413 6.5346C13.9983 6.75794 14.0815 6.94683 14.1908 7.10127C14.3024 7.25334 14.4355 7.36857 14.5899 7.44698C14.7444 7.52301 14.9202 7.56103 15.1174 7.56103C15.317 7.56103 15.494 7.52301 15.6484 7.44698C15.8029 7.36857 15.9335 7.25334 16.0405 7.10127C16.1474 6.94683 16.2282 6.75794 16.2828 6.5346C16.3398 6.31126 16.3683 6.05465 16.3683 5.76478ZM18.9237 5.18385V8.2168H18.0648V4.36057H18.8738L18.9237 5.18385ZM18.7705 6.14613L18.4925 6.14256C18.4948 5.86932 18.5329 5.61866 18.6065 5.39056C18.6826 5.16247 18.7871 4.96645 18.9201 4.80251C19.0556 4.63856 19.2171 4.51264 19.4049 4.42473C19.5926 4.33444 19.8016 4.2893 20.0321 4.2893C20.2174 4.2893 20.3849 4.31543 20.5346 4.3677C20.6867 4.4176 20.8162 4.49957 20.9231 4.61362C21.0324 4.72766 21.1156 4.87616 21.1726 5.05911C21.2296 5.23969 21.2581 5.46184 21.2581 5.72558V8.2168H20.3956V5.72201C20.3956 5.53669 20.3683 5.39056 20.3137 5.28364C20.2614 5.17435 20.1842 5.09713 20.082 5.05199C19.9822 5.00447 19.8575 4.98071 19.7078 4.98071C19.5605 4.98071 19.4286 5.01159 19.3122 5.07337C19.1958 5.13515 19.0972 5.21949 19.0164 5.32641C18.938 5.43333 18.8774 5.55688 18.8346 5.69707C18.7918 5.83725 18.7705 5.98694 18.7705 6.14613ZM23.0544 2.74253V8.2168H22.1919V2.74253H23.0544ZM24.9148 4.36057V8.2168H24.0523V4.36057H24.9148ZM23.9953 3.34841C23.9953 3.21773 24.038 3.10962 24.1236 3.02408C24.2115 2.93617 24.3326 2.89222 24.4871 2.89222C24.6391 2.89222 24.7591 2.93617 24.847 3.02408C24.935 3.10962 24.9789 3.21773 24.9789 3.34841C24.9789 3.47671 24.935 3.58363 24.847 3.66916C24.7591 3.7547 24.6391 3.79747 24.4871 3.79747C24.3326 3.79747 24.2115 3.7547 24.1236 3.66916C24.038 3.58363 23.9953 3.47671 23.9953 3.34841ZM26.7074 5.18385V8.2168H25.8485V4.36057H26.6575L26.7074 5.18385ZM26.5542 6.14613L26.2762 6.14256C26.2786 5.86932 26.3166 5.61866 26.3902 5.39056C26.4663 5.16247 26.5708 4.96645 26.7039 4.80251C26.8393 4.63856 27.0009 4.51264 27.1886 4.42473C27.3763 4.33444 27.5854 4.2893 27.8158 4.2893C28.0012 4.2893 28.1687 4.31543 28.3184 4.3677C28.4704 4.4176 28.5999 4.49957 28.7068 4.61362C28.8161 4.72766 28.8993 4.87616 28.9563 5.05911C29.0133 5.23969 29.0418 5.46184 29.0418 5.72558V8.2168H28.1794V5.72201C28.1794 5.53669 28.152 5.39056 28.0974 5.28364C28.0451 5.17435 27.9679 5.09713 27.8657 5.05199C27.7659 5.00447 27.6412 4.98071 27.4915 4.98071C27.3442 4.98071 27.2123 5.01159 27.0959 5.07337C26.9795 5.13515 26.8809 5.21949 26.8001 5.32641C26.7217 5.43333 26.6611 5.55688 26.6183 5.69707C26.5756 5.83725 26.5542 5.98694 26.5542 6.14613ZM31.6186 8.28808C31.3335 8.28808 31.0757 8.24174 30.8452 8.14908C30.6171 8.05404 30.4223 7.92217 30.2607 7.75348C30.1015 7.58479 29.9792 7.38639 29.8936 7.1583C29.8081 6.9302 29.7653 6.68429 29.7653 6.42055V6.27799C29.7653 5.97624 29.8093 5.70301 29.8972 5.45828C29.9851 5.21355 30.1075 5.00447 30.2643 4.83102C30.4211 4.6552 30.6064 4.52095 30.8203 4.42829C31.0341 4.33563 31.2658 4.2893 31.5152 4.2893C31.7909 4.2893 32.032 4.33563 32.2387 4.42829C32.4454 4.52095 32.6165 4.65163 32.7519 4.82033C32.8897 4.98665 32.9919 5.18504 33.0584 5.41551C33.1273 5.64598 33.1618 5.90021 33.1618 6.1782V6.54529H30.1823V5.92872H32.3136V5.86101C32.3088 5.70657 32.2779 5.56163 32.2209 5.4262C32.1663 5.29077 32.0819 5.18148 31.9679 5.09832C31.8538 5.01516 31.7018 4.97358 31.5117 4.97358C31.3691 4.97358 31.242 5.00447 31.1303 5.06624C31.021 5.12564 30.9296 5.21236 30.8559 5.32641C30.7823 5.44046 30.7252 5.57827 30.6848 5.73983C30.6468 5.89902 30.6278 6.07841 30.6278 6.27799V6.42055C30.6278 6.58925 30.6504 6.74606 30.6955 6.891C30.743 7.03356 30.812 7.1583 30.9022 7.26522C30.9925 7.37213 31.1018 7.45648 31.2301 7.51826C31.3584 7.57766 31.5046 7.60736 31.6685 7.60736C31.8752 7.60736 32.0593 7.56578 32.2209 7.48262C32.3825 7.39946 32.5227 7.28185 32.6415 7.12978L33.0941 7.56815C33.0109 7.68933 32.9028 7.80575 32.7698 7.91742C32.6367 8.02672 32.474 8.11582 32.2815 8.18472C32.0914 8.25362 31.8705 8.28808 31.6186 8.28808ZM39.1315 7.50757V8.2168H36.3765V7.50757H39.1315ZM36.6295 3.02765V8.2168H35.735V3.02765H36.6295ZM38.7715 5.19455V5.89308H36.3765V5.19455H38.7715ZM39.1136 3.02765V3.74044H36.3765V3.02765H39.1136ZM40.9384 7.53608L41.8828 4.36057H42.7738L41.4338 8.2168H40.8778L40.9384 7.53608ZM40.2149 4.36057L41.1772 7.55033L41.2235 8.2168H40.6675L39.3203 4.36057H40.2149ZM44.955 8.28808C44.6699 8.28808 44.4121 8.24174 44.1816 8.14908C43.9535 8.05404 43.7587 7.92217 43.5971 7.75348C43.4379 7.58479 43.3156 7.38639 43.23 7.1583C43.1445 6.9302 43.1017 6.68429 43.1017 6.42055V6.27799C43.1017 5.97624 43.1457 5.70301 43.2336 5.45828C43.3215 5.21355 43.4439 5.00447 43.6007 4.83102C43.7575 4.6552 43.9428 4.52095 44.1567 4.42829C44.3705 4.33563 44.6022 4.2893 44.8516 4.2893C45.1273 4.2893 45.3684 4.33563 45.5751 4.42829C45.7818 4.52095 45.9529 4.65163 46.0883 4.82033C46.2261 4.98665 46.3283 5.18504 46.3948 5.41551C46.4637 5.64598 46.4982 5.90021 46.4982 6.1782V6.54529H43.5187V5.92872H45.65V5.86101C45.6452 5.70657 45.6143 5.56163 45.5573 5.4262C45.5027 5.29077 45.4183 5.18148 45.3043 5.09832C45.1902 5.01516 45.0382 4.97358 44.8481 4.97358C44.7055 4.97358 44.5784 5.00447 44.4667 5.06624C44.3574 5.12564 44.266 5.21236 44.1923 5.32641C44.1186 5.44046 44.0616 5.57827 44.0212 5.73983C43.9832 5.89902 43.9642 6.07841 43.9642 6.27799V6.42055C43.9642 6.58925 43.9868 6.74606 44.0319 6.891C44.0794 7.03356 44.1483 7.1583 44.2386 7.26522C44.3289 7.37213 44.4382 7.45648 44.5665 7.51826C44.6948 7.57766 44.8409 7.60736 45.0049 7.60736C45.2116 7.60736 45.3957 7.56578 45.5573 7.48262C45.7189 7.39946 45.8591 7.28185 45.9779 7.12978L46.4305 7.56815C46.3473 7.68933 46.2392 7.80575 46.1062 7.91742C45.9731 8.02672 45.8103 8.11582 45.6179 8.18472C45.4278 8.25362 45.2068 8.28808 44.955 8.28808ZM48.02 5.18385V8.2168H47.1611V4.36057H47.9701L48.02 5.18385ZM47.8668 6.14613L47.5888 6.14256C47.5911 5.86932 47.6292 5.61866 47.7028 5.39056C47.7789 5.16247 47.8834 4.96645 48.0165 4.80251C48.1519 4.63856 48.3134 4.51264 48.5012 4.42473C48.6889 4.33444 48.8979 4.2893 49.1284 4.2893C49.3137 4.2893 49.4812 4.31543 49.6309 4.3677C49.783 4.4176 49.9125 4.49957 50.0194 4.61362C50.1287 4.72766 50.2119 4.87616 50.2689 5.05911C50.3259 5.23969 50.3544 5.46184 50.3544 5.72558V8.2168H49.4919V5.72201C49.4919 5.53669 49.4646 5.39056 49.41 5.28364C49.3577 5.17435 49.2805 5.09713 49.1783 5.05199C49.0785 5.00447 48.9538 4.98071 48.8041 4.98071C48.6568 4.98071 48.5249 5.01159 48.4085 5.07337C48.2921 5.13515 48.1935 5.21949 48.1127 5.32641C48.0343 5.43333 47.9737 5.55688 47.9309 5.69707C47.8881 5.83725 47.8668 5.98694 47.8668 6.14613ZM52.9989 4.36057V4.98783H50.8249V4.36057H52.9989ZM51.4521 3.41612H52.311V7.15117C52.311 7.26997 52.3277 7.36144 52.3609 7.42559C52.3966 7.48737 52.4453 7.52895 52.5071 7.55033C52.5688 7.57172 52.6413 7.58241 52.7245 7.58241C52.7839 7.58241 52.8409 7.57885 52.8955 7.57172C52.9502 7.56459 52.9941 7.55746 53.0274 7.55033L53.031 8.2061C52.9597 8.22749 52.8765 8.2465 52.7815 8.26313C52.6888 8.27976 52.5819 8.28808 52.4607 8.28808C52.2635 8.28808 52.0889 8.25362 51.9368 8.18472C51.7848 8.11344 51.666 7.99821 51.5804 7.83902C51.4949 7.67982 51.4521 7.46836 51.4521 7.20463V3.41612Z" fill="#707070"/>
</g>
<defs>
<clipPath id="clip0_48_12">
<rect width="44.536" height="9.73199" fill="white" transform="translate(12.5977 1.2168)"/>
</clipPath>
</defs>
</svg>
