<svg width="43" height="42" viewBox="0 0 43 42" fill="none" xmlns="http://www.w3.org/2000/svg">
<path d="M0.339844 0H34.3398C38.7581 0 42.3398 3.58172 42.3398 8V34C42.3398 38.4183 38.7581 42 34.3398 42H0.339844V0Z" fill="#F65858"/>
<path fill-rule="evenodd" clip-rule="evenodd" d="M25.0898 19.75C25.0898 22.5114 22.8513 24.75 20.0898 24.75C17.3284 24.75 15.0898 22.5114 15.0898 19.75C15.0898 16.9886 17.3284 14.75 20.0898 14.75C22.8513 14.75 25.0898 16.9886 25.0898 19.75ZM26.3398 19.75C26.3398 23.2017 23.5416 26 20.0898 26C16.6381 26 13.8398 23.2017 13.8398 19.75C13.8398 16.2982 16.6381 13.5 20.0898 13.5C23.5416 13.5 26.3398 16.2982 26.3398 19.75ZM25.0646 25.6086L24.6372 25.1812C24.9571 24.9131 25.2529 24.6173 25.521 24.2973L25.9484 24.7247L28.4484 27.2247C28.6925 27.4688 28.6925 27.8645 28.4484 28.1086C28.2043 28.3527 27.8087 28.3527 27.5646 28.1086L25.0646 25.6086Z" fill="white"/>
</svg>
